<svg width="16" height="18" viewBox="0 0 16 18" fill="none" xmlns="http://www.w3.org/2000/svg">
<path d="M13.8333 2.5H10.35C9.875 1.2 8.44167 0.533338 7.16667 1C6.45 1.25 5.91667 1.8 5.65 2.5H2.16667C1.72464 2.5 1.30072 2.6756 0.988155 2.98816C0.675595 3.30072 0.5 3.72464 0.5 4.16667V15.8333C0.5 16.2754 0.675595 16.6993 0.988155 17.0118C1.30072 17.3244 1.72464 17.5 2.16667 17.5H13.8333C14.2754 17.5 14.6993 17.3244 15.0118 17.0118C15.3244 16.6993 15.5 16.2754 15.5 15.8333V4.16667C15.5 3.72464 15.3244 3.30072 15.0118 2.98816C14.6993 2.6756 14.2754 2.5 13.8333 2.5ZM8 2.5C8.22101 2.5 8.43297 2.5878 8.58926 2.74408C8.74554 2.90036 8.83333 3.11232 8.83333 3.33334C8.83333 3.55435 8.74554 3.76631 8.58926 3.92259C8.43297 4.07887 8.22101 4.16667 8 4.16667C7.77899 4.16667 7.56702 4.07887 7.41074 3.92259C7.25446 3.76631 7.16667 3.55435 7.16667 3.33334C7.16667 3.11232 7.25446 2.90036 7.41074 2.74408C7.56702 2.5878 7.77899 2.5 8 2.5ZM3.83333 5.83334H12.1667V4.16667H13.8333V15.8333H2.16667V4.16667H3.83333V5.83334ZM12.1667 9.16667H3.83333V7.5H12.1667V9.16667ZM10.5 12.5H3.83333V10.8333H10.5V12.5Z" fill="#013A93"/>
</svg>
